<svg width="185" height="87" viewBox="0 0 185 87" fill="none" xmlns="http://www.w3.org/2000/svg">
<g clip-path="url(#clip0_5_2)">
<path d="M5.8529 67.8908C5.89843 67.8996 5.93368 67.9276 5.96158 67.9718L11.882 82.5989L17.8157 67.9718C17.8333 67.9173 17.8701 67.8908 17.9244 67.8908H23.4512C23.5408 67.8908 23.5864 67.9365 23.5864 68.0263V68.7463C23.5864 68.8376 23.5408 68.8818 23.4512 68.8818L21.0939 69.1129C20.9941 69.1129 20.9456 69.1586 20.9456 69.2484V85.2478C20.9456 85.3288 20.9955 85.3744 21.0939 85.3833L23.5864 85.6012C23.676 85.61 23.7215 85.6601 23.7215 85.7499V86.4699C23.7215 86.5612 23.676 86.6054 23.5864 86.6054H15.783C15.6919 86.6054 15.6479 86.5598 15.6479 86.4699V85.7499C15.6479 85.6601 15.6934 85.61 15.783 85.6012L18.3973 85.3833C18.4869 85.3744 18.5325 85.3288 18.5325 85.2478V69.8064H18.4238L11.5692 86.7968C11.5516 86.8336 11.506 86.8513 11.4341 86.8513H11.1491C11.0772 86.8513 11.0316 86.8336 11.014 86.7968L4.15945 69.9964H4.05076V85.2478C4.05076 85.3391 4.09629 85.3833 4.18589 85.3833L6.48886 85.6012C6.58873 85.6012 6.6372 85.6513 6.6372 85.7499V86.4699C6.6372 86.5612 6.58726 86.6054 6.48886 86.6054H0.135123C0.044062 86.6054 0 86.5598 0 86.4699V85.7499C0 85.6601 0.0455307 85.61 0.135123 85.6012L2.61434 85.3833C2.70394 85.3744 2.74947 85.3288 2.74947 85.2478V69.2484C2.74947 69.1586 2.70394 69.1129 2.61434 69.1129L0.257028 68.8818C0.157154 68.8818 0.108686 68.8361 0.108686 68.7463V68.0263C0.108686 67.9365 0.158623 67.8908 0.257028 67.8908H5.8529Z" fill="white"/>
<path d="M36.5362 86.6069C36.4451 86.6069 36.4011 86.5612 36.4011 86.4714V85.7514C36.4011 85.6513 36.4466 85.6027 36.5362 85.6027L38.704 85.3847C38.7584 85.3847 38.7936 85.3671 38.8127 85.3303C38.8304 85.2935 38.8304 85.2493 38.8127 85.1948L36.7536 79.735C36.7169 79.6806 36.6816 79.654 36.6449 79.654H30.6025C30.557 79.6629 30.5217 79.6909 30.4938 79.735L28.2995 85.2493C28.254 85.3671 28.2996 85.4304 28.4347 85.4392L30.5203 85.6027C30.6099 85.6115 30.6554 85.6616 30.6554 85.7514V86.4714C30.6554 86.5627 30.6099 86.6069 30.5203 86.6069H24.519C24.428 86.6069 24.3839 86.5612 24.3839 86.4714V85.7514C24.3839 85.6513 24.4294 85.6027 24.519 85.6027L26.7956 85.3847C26.8411 85.3759 26.8763 85.3494 26.9043 85.3038L33.963 67.4991C33.9982 67.4447 34.0349 67.4182 34.0717 67.4182H34.762C34.8075 67.427 34.8428 67.455 34.8707 67.4991L41.3595 85.2773C41.3771 85.3317 41.4183 85.3582 41.4814 85.3582L43.6889 85.6027C43.7697 85.6027 43.8108 85.6527 43.8108 85.7514V86.4714C43.8108 86.5627 43.7609 86.6069 43.6625 86.6069H36.5362ZM33.8411 71.6396C33.8044 71.5851 33.7691 71.5586 33.7324 71.5586C33.678 71.5586 33.6413 71.5851 33.6237 71.6396L31.0094 78.295C30.955 78.4216 30.9961 78.4849 31.1313 78.4849H36.144C36.288 78.4849 36.3379 78.4216 36.2924 78.295L33.8411 71.6396Z" fill="white"/>
<path d="M54.4048 72.6173C54.3137 72.6173 54.2697 72.582 54.2697 72.5083L53.7145 69.3853C53.7145 69.3308 53.6734 69.2852 53.5926 69.2499C52.798 68.8965 51.9403 68.7198 51.0179 68.7198C50.0955 68.7198 49.2481 68.973 48.5798 69.481C47.8396 70.042 47.4694 70.79 47.4694 71.7221C47.4694 72.6541 47.7984 73.3786 48.4579 74.0043C48.9 74.421 49.6226 74.8598 50.6257 75.3222L52.4279 76.1511C53.8364 76.8034 54.8616 77.4645 55.5034 78.1345C56.3068 78.9767 56.7092 80.0222 56.7092 81.2723C56.7092 83.1378 55.9954 84.5867 54.5693 85.6189C53.2959 86.5421 51.6979 87.0044 49.7739 87.0044C48.7898 87.0044 47.656 86.8601 46.3738 86.5701C46.0125 86.4891 45.6835 86.3889 45.3853 86.2711C45.2942 86.2343 45.2502 86.1902 45.2502 86.1357V81.9393C45.2502 81.8494 45.2957 81.8038 45.3853 81.8038H46.5236C46.6132 81.8303 46.6587 81.8671 46.6587 81.9128L47.2139 85.0505C47.2227 85.077 47.2403 85.1006 47.2682 85.1182L47.3358 85.1992C47.9864 85.5246 48.8897 85.6881 50.0456 85.6881C51.2015 85.6881 52.1371 85.4216 52.9037 84.8871C53.7791 84.2804 54.2183 83.4294 54.2183 82.3339C54.2183 80.8128 53.2063 79.5775 51.1839 78.6263L49.3553 77.7708C48.0187 77.1465 47.0259 76.5075 46.3752 75.8567C45.5175 74.9968 45.0886 73.9822 45.0886 72.8146C45.0886 71.647 45.4455 70.6104 46.1593 69.7048C46.854 68.8273 47.7661 68.2015 48.8956 67.8304C49.6182 67.5948 50.3805 67.4771 51.1853 67.4771C52.2604 67.4771 53.362 67.6081 54.4914 67.8702C54.7984 67.9423 55.1333 68.0336 55.4946 68.1411C55.5842 68.1588 55.6297 68.2044 55.6297 68.2766V72.4863C55.6297 72.5776 55.5842 72.6217 55.4946 72.6217H54.4107L54.4048 72.6173Z" fill="white"/>
<path d="M73.4659 67.8908C73.5555 67.8908 73.601 67.9365 73.601 68.0263V72.3861C73.601 72.4863 73.5555 72.5349 73.4659 72.5349H72.4363C72.3453 72.5349 72.3012 72.498 72.3012 72.4259L71.746 69.2749C71.746 69.2027 71.7005 69.1659 71.6109 69.1659H67.1137C67.0417 69.1659 67.005 69.2116 67.005 69.3014V85.2463C67.005 85.3273 67.0505 85.373 67.1401 85.3818L69.7676 85.5997C69.8675 85.6086 69.916 85.6586 69.916 85.7484V86.4685C69.916 86.5598 69.8661 86.6039 69.7676 86.6039H61.8159C61.7161 86.6039 61.6676 86.5583 61.6676 86.4685V85.7484C61.6676 85.6586 61.7175 85.6086 61.8159 85.5997L64.4435 85.3818C64.5331 85.373 64.5786 85.3273 64.5786 85.2463V69.3014C64.5786 69.2116 64.5419 69.1659 64.4699 69.1659H59.9727C59.8816 69.1659 59.8376 69.2027 59.8376 69.2749L59.2824 72.4259C59.2824 72.498 59.2368 72.5349 59.1472 72.5349H58.1177C58.0266 72.5349 57.9825 72.4848 57.9825 72.3861V68.0263C57.9825 67.9365 58.0281 67.8908 58.1177 67.8908H73.4659Z" fill="white"/>
<path d="M88.5852 67.8908C88.6747 67.8908 88.7203 67.9364 88.7203 68.0263V72.3861C88.7203 72.4863 88.6747 72.5348 88.5852 72.5348H87.5556C87.4645 72.5348 87.4204 72.498 87.4204 72.4259L86.8653 69.2749C86.8653 69.2027 86.8197 69.1659 86.7301 69.1659H80.3764C80.2853 69.1659 80.2413 69.2116 80.2413 69.3014V76.1732C80.2413 76.2645 80.2868 76.3087 80.3764 76.3087H84.1966C84.2965 76.3087 84.3449 76.2719 84.3449 76.1997L84.6152 73.9454C84.6152 73.8733 84.6607 73.8365 84.7503 73.8365H85.5096C85.5992 73.8365 85.6447 73.8821 85.6447 73.9719V80.0148C85.6447 80.1061 85.5992 80.1503 85.5096 80.1503H84.7503C84.6592 80.1503 84.6152 80.1134 84.6152 80.0413L84.3449 77.6515C84.3449 77.5706 84.295 77.5293 84.1966 77.5293H80.3764C80.2853 77.5293 80.2413 77.5794 80.2413 77.678V85.1889C80.2413 85.2802 80.2868 85.3244 80.3764 85.3244H87.1091C87.209 85.3244 87.2574 85.2876 87.2574 85.2154L87.8126 82.1189C87.8126 82.0467 87.8581 82.0099 87.9477 82.0099H88.9773C89.0669 82.0099 89.1124 82.0556 89.1124 82.1454V86.464C89.1124 86.5553 89.0669 86.5995 88.9773 86.5995H75.3225C75.2314 86.5995 75.1874 86.5538 75.1874 86.464V85.744C75.1874 85.6439 75.2329 85.5953 75.3225 85.5953L77.6798 85.3774C77.7694 85.3774 77.8149 85.3317 77.8149 85.2419V69.1895C77.7782 69.135 77.7342 69.1085 77.6798 69.1085L75.3225 68.8773C75.2314 68.8773 75.1874 68.8317 75.1874 68.7419V68.0218C75.1874 67.932 75.2329 67.8864 75.3225 67.8864H88.5852V67.8908Z" fill="white"/>
<path d="M98.0687 67.8908C100.579 67.8908 102.385 68.2795 103.487 69.0585C104.778 69.9728 105.424 71.2141 105.424 72.7793C105.424 74.5815 104.543 75.948 102.782 76.8815C102.24 77.1715 101.657 77.3968 101.034 77.5603C101.992 78.0226 102.891 79.0636 103.731 80.6833L106.114 85.2743C106.151 85.3465 106.219 85.3833 106.317 85.3833L108.335 85.6012C108.425 85.6012 108.47 85.6513 108.47 85.7499V86.4699C108.47 86.5612 108.425 86.6054 108.335 86.6054H103.986C103.886 86.6054 103.819 86.5686 103.784 86.4964L101.4 81.4843C100.253 79.0754 98.7722 77.8709 96.9569 77.8709H96.6323C96.5412 77.8709 96.4972 77.9078 96.4972 77.9799V85.2463C96.4972 85.3273 96.5427 85.373 96.6323 85.3818L99.2599 85.5997C99.3597 85.6086 99.4082 85.6586 99.4082 85.7484V86.4685C99.4082 86.5598 99.3583 86.6039 99.2599 86.6039H91.524C91.433 86.6039 91.3889 86.5583 91.3889 86.4685V85.7484C91.3889 85.6483 91.4345 85.5997 91.524 85.5997L93.8814 85.3818C93.971 85.3818 94.0165 85.3362 94.0165 85.2463V69.2469C94.0165 69.1571 93.971 69.1115 93.8814 69.1115L91.524 68.8803C91.433 68.8803 91.3889 68.8346 91.3889 68.7448V68.0248C91.3889 67.935 91.4345 67.8893 91.524 67.8893H98.0672L98.0687 67.8908ZM96.4972 76.5958C96.4972 76.6871 96.5339 76.7313 96.6059 76.7313C97.8881 76.7313 98.7869 76.7092 99.3024 76.6635C100.621 76.5458 101.583 76.026 102.189 75.1013C102.532 74.5756 102.703 73.9337 102.703 73.1724C102.703 70.5014 101.005 69.1659 97.609 69.1659H96.6338C96.5427 69.1659 96.4986 69.2116 96.4986 69.3014V76.5943L96.4972 76.5958Z" fill="white"/>
<path d="M127.032 67.4712C127.366 67.4712 127.746 67.4932 128.17 67.5389C128.595 67.5845 129.024 67.6405 129.457 67.7082C129.89 67.776 130.318 67.851 130.738 67.932C131.158 68.013 131.521 68.0807 131.829 68.1352C131.929 68.1529 131.977 68.1985 131.977 68.2707V72.4804C131.977 72.5717 131.927 72.6158 131.829 72.6158H130.758C130.713 72.6158 130.678 72.607 130.65 72.5893C130.623 72.5717 130.609 72.5437 130.609 72.5083L130.053 69.3853C130.053 69.3308 130.017 69.2852 129.945 69.2499C129.782 69.213 129.575 69.1645 129.322 69.1011C129.069 69.0378 128.809 68.9775 128.543 68.9171C128.278 68.8582 128.002 68.8111 127.717 68.7743C127.432 68.7374 127.158 68.7198 126.897 68.7198C125.66 68.7198 124.56 68.9097 123.598 69.2896C122.636 69.6695 121.825 70.2084 121.166 70.9063C120.507 71.6043 120.006 72.4391 119.662 73.4124C119.318 74.3857 119.147 75.4561 119.147 76.6238C119.147 77.7914 119.327 79.0047 119.688 80.1002C120.05 81.1957 120.564 82.1601 121.232 82.9935C121.9 83.8269 122.707 84.4836 123.65 84.9622C124.594 85.4422 125.638 85.6822 126.785 85.6822C126.984 85.6822 127.227 85.6733 127.517 85.6557C127.806 85.638 128.093 85.61 128.377 85.5747C128.662 85.5379 128.944 85.4937 129.223 85.4392C129.504 85.3847 129.743 85.3038 129.942 85.1948C130.014 85.1492 130.05 85.0991 130.05 85.0461L130.606 81.9083C130.606 81.8907 130.619 81.8671 130.647 81.8406C130.675 81.8141 130.71 81.7994 130.755 81.7994H131.826C131.926 81.7994 131.974 81.845 131.974 81.9348V86.1313C131.974 86.1857 131.924 86.2314 131.826 86.2667C131.519 86.3477 131.18 86.4302 130.81 86.5111C130.44 86.5921 130.036 86.6702 129.597 86.7423C129.159 86.8145 128.686 86.8763 128.181 86.9264C127.675 86.9764 127.114 87.0015 126.5 87.0015C125.488 87.0015 124.538 86.891 123.648 86.6687C122.758 86.4464 121.939 86.1254 121.19 85.7043C120.439 85.2831 119.774 84.781 119.191 84.1965C118.607 83.6119 118.118 82.9655 117.72 82.2544C117.322 81.5432 117.014 80.7657 116.792 79.9191C116.57 79.0724 116.46 78.1963 116.46 77.2908C116.46 76.2498 116.589 75.2853 116.846 74.3975C117.104 73.5096 117.469 72.6998 117.944 71.9665C118.418 71.2332 118.978 70.5883 119.624 70.0317C120.27 69.4751 120.981 69.0069 121.758 68.6255C122.535 68.2457 123.372 67.9585 124.271 67.7627C125.17 67.5683 126.088 67.4712 127.028 67.4712H127.032Z" fill="white"/>
<path d="M134.387 68.0277C134.387 67.9379 134.433 67.8923 134.523 67.8923H141.797C141.887 67.8923 141.932 67.9379 141.932 68.0277V68.7478C141.932 68.839 141.887 68.8832 141.797 68.8832L139.575 69.1144C139.484 69.1144 139.44 69.16 139.44 69.2499V75.9862C139.44 76.0407 139.453 76.0672 139.481 76.0672H148.395C148.412 76.0495 148.421 76.0216 148.421 75.9862V69.2499C148.421 69.16 148.376 69.1144 148.286 69.1144L146.064 68.8832C145.973 68.8832 145.929 68.8376 145.929 68.7478V68.0277C145.929 67.9379 145.974 67.8923 146.064 67.8923H153.339C153.428 67.8923 153.474 67.9379 153.474 68.0277V68.7478C153.474 68.839 153.428 68.8832 153.339 68.8832L150.968 69.1144C150.877 69.1144 150.833 69.16 150.833 69.2499V85.2493C150.833 85.3406 150.878 85.3847 150.968 85.3847L153.339 85.6027C153.428 85.6027 153.474 85.6527 153.474 85.7514V86.4714C153.474 86.5627 153.428 86.6069 153.339 86.6069H146.064C145.973 86.6069 145.929 86.5612 145.929 86.4714V85.7514C145.929 85.6513 145.974 85.6027 146.064 85.6027L148.286 85.3847C148.376 85.3847 148.421 85.3391 148.421 85.2493V77.4807C148.421 77.3909 148.376 77.3453 148.286 77.3453H139.575C139.484 77.3453 139.44 77.3909 139.44 77.4807V85.2493C139.44 85.3406 139.485 85.3847 139.575 85.3847L141.797 85.6027C141.887 85.6027 141.932 85.6527 141.932 85.7514V86.4714C141.932 86.5627 141.887 86.6069 141.797 86.6069H134.523C134.432 86.6069 134.387 86.5612 134.387 86.4714V85.7514C134.387 85.6513 134.433 85.6027 134.523 85.6027L136.88 85.3847C136.969 85.3847 137.015 85.3391 137.015 85.2493V69.2499C137.015 69.16 136.969 69.1144 136.88 69.1144L134.523 68.8832C134.432 68.8832 134.387 68.8376 134.387 68.7478V68.0277Z" fill="white"/>
<path d="M168.934 67.8908C169.023 67.8908 169.069 67.9364 169.069 68.0263V72.3861C169.069 72.4863 169.023 72.5348 168.934 72.5348H167.904C167.813 72.5348 167.769 72.498 167.769 72.4259L167.214 69.2749C167.214 69.2027 167.168 69.1659 167.079 69.1659H160.725C160.634 69.1659 160.59 69.2116 160.59 69.3014V76.1732C160.59 76.2645 160.635 76.3087 160.725 76.3087H164.545C164.645 76.3087 164.693 76.2719 164.693 76.1997L164.964 73.9454C164.964 73.8733 165.009 73.8365 165.099 73.8365H165.858C165.948 73.8365 165.993 73.8821 165.993 73.9719V80.0148C165.993 80.1061 165.948 80.1503 165.858 80.1503H165.099C165.008 80.1503 164.964 80.1134 164.964 80.0413L164.693 77.6515C164.693 77.5706 164.643 77.5293 164.545 77.5293H160.725C160.634 77.5293 160.59 77.5794 160.59 77.678V85.1889C160.59 85.2802 160.635 85.3244 160.725 85.3244H167.457C167.557 85.3244 167.606 85.2876 167.606 85.2154L168.161 82.1189C168.161 82.0467 168.207 82.0099 168.296 82.0099H169.326C169.415 82.0099 169.461 82.0556 169.461 82.1454V86.464C169.461 86.5553 169.415 86.5995 169.326 86.5995H155.671C155.58 86.5995 155.536 86.5538 155.536 86.464V85.744C155.536 85.6439 155.581 85.5953 155.671 85.5953L158.028 85.3774C158.118 85.3774 158.163 85.3317 158.163 85.2419V69.1895C158.127 69.135 158.083 69.1085 158.028 69.1085L155.671 68.8773C155.58 68.8773 155.536 68.8317 155.536 68.7419V68.0218C155.536 67.932 155.581 67.8864 155.671 67.8864H168.934V67.8908Z" fill="white"/>
<path d="M184.852 67.8908C184.951 67.8908 185 67.9364 185 68.0263V72.3861C185 72.4862 184.95 72.5348 184.852 72.5348H183.835C183.735 72.5348 183.687 72.498 183.687 72.4259L183.145 69.2749C183.145 69.2027 183.095 69.1659 182.997 69.1659H176.928C176.837 69.1659 176.793 69.2116 176.793 69.3014V76.5943C176.793 76.6665 176.838 76.7033 176.928 76.7033H180.585C180.675 76.7033 180.72 76.6665 180.72 76.5943L181.005 74.34C181.005 74.2679 181.051 74.2311 181.14 74.2311H181.885C181.985 74.2311 182.033 74.2767 182.033 74.3665V80.2872C182.033 80.3785 181.983 80.4226 181.885 80.4226H181.14C181.049 80.4226 181.005 80.3858 181.005 80.3137L180.72 78.0314C180.72 77.9593 180.675 77.9225 180.585 77.9225H176.928C176.837 77.9225 176.793 77.9593 176.793 78.0314V85.2434C176.793 85.3347 176.838 85.3788 176.928 85.3788L179.285 85.5968C179.375 85.5968 179.42 85.6468 179.42 85.7455V86.4655C179.42 86.5568 179.375 86.601 179.285 86.601H171.875C171.784 86.601 171.74 86.5553 171.74 86.4655V85.7455C171.74 85.6454 171.786 85.5968 171.875 85.5968L174.233 85.3788C174.322 85.3788 174.368 85.3332 174.368 85.2434V69.1909C174.35 69.1365 174.322 69.11 174.287 69.11H174.233L171.875 68.8788C171.784 68.8788 171.74 68.8331 171.74 68.7433V68.0233C171.74 67.9335 171.777 67.8878 171.849 67.8878H184.855L184.852 67.8908Z" fill="white"/>
<path d="M107.531 33.4839C107.531 33.4839 107.523 33.4775 107.519 33.4743C107.523 33.4727 107.525 33.4727 107.53 33.4727C107.53 33.4759 107.53 33.4807 107.531 33.4839Z" fill="white"/>
<path d="M123.885 16.4338C123.065 15.9111 122.378 15.2603 121.565 14.9938C119.304 14.2561 116.824 15.7624 116.203 18.1153C115.71 19.9823 115.895 22.032 114.599 23.6649C115.934 24.2391 116.892 24.0183 117.795 23.1113C118.193 22.7137 118.679 22.3176 119.198 22.1586C119.518 22.0614 120.314 22.431 120.308 22.5635C120.286 23.0877 120.158 23.9285 119.835 24.0566C118.838 24.4512 118.603 25.0122 118.994 25.9118C116.838 27.1428 114.119 26.5405 112.515 24.488C111.306 22.9405 110.747 21.1397 110.634 19.1961C110.619 18.9472 110.731 18.6159 110.904 18.4466C112.113 17.2672 112.227 16.4529 111.311 14.9393C111.889 14.3238 112.179 13.617 111.632 12.8337C111.212 12.2285 110.582 12.0666 109.924 12.3463C109.005 12.735 108.905 13.5287 109.119 14.3783C107.608 15.2279 107.132 16.2998 107.784 17.5499C108.035 18.0314 107.966 18.3273 107.673 18.7116C106.037 20.8599 103.951 22.3574 101.32 22.9743C99.6211 23.3719 97.9659 23.1981 96.4986 22.0791C97.4489 20.9645 97.2168 20.053 95.9097 19.5406C95.8568 19.52 95.7995 19.4979 95.7422 19.492C95.1694 19.4317 95.046 19.0415 95.0842 18.56C95.1136 18.183 95.1327 17.7914 95.2502 17.4365C95.6379 16.2659 96.7512 16.0112 97.5561 16.9462C97.9042 17.3511 98.079 17.9106 98.3096 18.4113C98.6283 19.0989 98.8545 19.8425 99.2584 20.4741C99.5433 20.9173 100.025 21.2663 100.482 21.5593C100.805 21.7669 101.165 21.6506 101.04 21.1544C100.723 19.8896 101.225 18.8088 101.699 17.6957C102.122 16.7047 102.595 15.7035 102.799 14.6595C103.336 11.912 101.062 9.63853 98.3125 10.1274C97.4871 10.2746 96.6984 10.6339 96.1491 10.8121C96.1872 9.47656 96.3943 7.95996 96.2386 6.48164C95.9625 3.84893 93.7638 2.26901 92.5242 0C91.6518 1.18825 90.8925 2.24987 90.1037 3.28941C88.563 5.31989 88.1636 7.56387 88.801 10.014C88.8862 10.3379 88.9508 10.6678 89.0463 11.0889C88.7466 10.9033 88.5542 10.7723 88.3501 10.6619C85.4993 9.11729 82.2681 10.6103 82.1006 13.6597C82.0448 14.689 82.4091 15.7977 82.8056 16.7813C83.4269 18.3229 84.339 19.7644 83.8249 21.5696C83.9336 21.6462 84.0408 21.7228 84.1495 21.7993C84.621 21.4253 85.2393 21.1397 85.5331 20.6567C86.0736 19.7703 86.4305 18.7691 86.849 17.809C87.2632 16.8637 87.9814 16.2718 88.6526 16.4264C89.6147 16.6473 89.7131 17.4866 89.8629 18.267C89.8849 18.3803 89.8643 18.5026 89.8732 18.6189C89.9069 19.0959 89.6675 19.308 89.2401 19.5185C88.7555 19.76 88.1738 20.1134 87.9873 20.564C87.8169 20.9777 88.1151 21.5873 88.2282 22.2293C87.9785 22.3323 87.5922 22.5473 87.178 22.6578C83.9219 23.5324 78.6491 21.2575 77.0482 18.292C76.963 18.1344 76.9336 17.9018 76.9777 17.7295C77.4447 15.8964 77.2009 15.3162 75.5413 14.4136C75.4943 13.1282 75.2064 12.4833 74.4162 12.442C73.9169 12.417 73.2192 12.6658 72.924 13.0413C72.3203 13.804 72.689 14.58 73.3602 15.169C72.526 16.6193 72.714 17.6014 73.9404 18.5791C74.1122 18.7161 74.2811 18.984 74.2796 19.1902C74.262 21.1691 73.8008 23.0273 72.5671 24.6146C70.9221 26.7275 67.9656 27.3033 65.9225 25.9457C66.2971 24.8296 66.1664 24.7339 65.1735 24.1007C64.8151 23.871 64.6198 23.1304 64.6359 22.6327C64.6536 22.0276 65.2866 21.9628 65.7228 22.1498C66.2369 22.3706 66.7362 22.7078 67.1328 23.1039C68.0992 24.0683 69.1934 24.301 70.1011 23.7518C69.7809 22.5959 69.4519 21.4931 69.1729 20.3784C69.0172 19.7556 68.9702 19.1063 68.8306 18.479C68.4076 16.5855 67.2591 15.3736 65.3659 14.9334C63.6049 14.5255 62.2346 15.1793 61.3519 16.4426C60.4427 14.9672 59.6878 13.3093 58.5378 12.0018C57.2879 10.5794 55.4035 10.5779 53.5411 10.7355C53.7673 11.2464 54.0728 11.641 54.3915 12.0253C57.6477 15.9611 59.8508 20.533 62.1758 25.0284C62.261 25.1947 62.1817 25.4981 62.0892 25.6954C61.8101 26.2947 61.9731 27.0088 62.5342 27.0353C63.2333 27.0692 63.3919 27.5006 63.5931 27.9835C63.953 28.8449 64.3055 29.7122 64.6771 30.5691C64.8621 30.9932 64.9032 31.3097 64.5478 31.7353C63.95 32.4524 64.2967 33.2077 65.2234 33.4227C65.3732 33.458 65.5157 33.5272 65.8286 33.6421C65.479 33.8968 65.2322 34.0367 65.0413 34.231C64.8959 34.3783 64.7167 34.605 64.7314 34.7803C64.8298 35.889 64.9547 36.9948 65.128 38.0932C65.1632 38.3185 65.4011 38.588 65.6171 38.6969C66.5629 39.1711 66.6951 39.7556 65.9872 40.5581C65.3615 41.2663 65.2939 42.0511 66.018 42.6445C66.5776 43.1039 67.3164 43.5088 68.0184 43.5972C70.9441 43.9653 73.8801 44.3893 76.8205 44.4571C84.4491 44.6352 92.0836 44.7398 99.7122 44.6706C104.647 44.6264 109.581 44.2524 114.511 43.9623C115.638 43.8961 116.779 43.6679 117.855 43.3277C119.478 42.8138 119.771 41.6433 118.722 40.3431C118.287 39.8027 118.444 39.0164 119.101 38.8C119.675 38.6101 119.868 38.2611 119.9 37.7075C119.935 37.0935 119.981 36.4765 120.097 35.8743C120.263 35.007 120.314 34.2193 119.343 33.7717C119.311 33.7584 119.339 33.6156 119.339 33.5375C120.512 33.19 121.029 32.5731 120.514 31.9812C119.831 31.1949 120.233 30.5721 120.483 29.9021C120.78 29.1099 121.135 28.334 121.529 27.586C121.646 27.3607 121.958 27.1811 122.216 27.0986C122.846 26.9013 123.259 26.3212 122.905 25.8735C122.51 25.3714 122.726 25.0372 122.948 24.6279C123.185 24.1905 123.409 23.7459 123.638 23.3041C125.863 19.015 128.092 14.7272 131.338 11.083C131.403 11.0094 131.403 10.8783 131.46 10.6781C126.898 10.1082 124.966 12.872 123.885 16.4338ZM117.437 22.8286L117.124 22.7181C117.529 21.5696 117.935 20.4226 118.342 19.2741C118.434 19.3094 118.528 19.3448 118.622 19.3801C118.227 20.5301 117.832 21.6786 117.437 22.8286ZM120.023 21.5151C119.497 21.3473 118.854 21.5534 118.174 21.602C118.483 20.8982 118.817 20.134 119.151 19.3713C119.223 19.3919 119.295 19.411 119.367 19.4317C119.246 19.8925 119.126 20.3534 119.005 20.8143C119.048 20.8319 119.089 20.8496 119.13 20.8673C119.393 20.3784 119.655 19.8881 119.916 19.3993C119.966 19.4125 120.016 19.4258 120.066 19.439C119.962 19.9279 119.857 20.4167 119.755 20.907C119.781 20.9159 119.809 20.9247 119.835 20.9335C120.057 20.5213 120.279 20.1075 120.501 19.6952C120.556 19.7114 120.612 19.7276 120.668 19.7438C120.599 20.1443 120.531 20.5433 120.452 21.0042C120.775 20.5949 121.056 20.24 121.336 19.8852C121.388 19.9176 121.439 19.9485 121.491 19.9794C121.364 20.4064 121.238 20.8319 121.112 21.2589C121.144 21.2707 121.178 21.2825 121.21 21.2943C121.427 20.9527 121.643 20.6111 121.861 20.2695C121.908 20.296 121.955 20.321 122.002 20.346C121.764 21.1058 121.526 21.8656 121.3 22.5871C120.888 22.2219 120.518 21.6727 120.023 21.5151ZM109.891 12.844C110.504 12.4273 111.043 12.6305 111.374 13.2003C110.804 13.5832 110.258 13.9498 109.691 14.3312C109.247 13.7716 109.328 13.2268 109.891 12.844ZM108.567 15.2941C108.937 15.0792 109.611 15.3118 110.123 15.4532C110.443 15.543 110.712 15.8257 111.027 16.0392C110.264 16.1349 109.905 17.4851 108.771 16.5383C108.739 16.6561 108.708 16.7739 108.677 16.8917C108.983 17.0434 109.288 17.195 109.594 17.3452C109.509 17.4468 109.423 17.5484 109.338 17.65C109.047 17.4822 108.757 17.3158 108.301 17.0522C108.486 17.413 108.604 17.6412 108.721 17.8679C108.657 17.9033 108.591 17.9386 108.526 17.9754C108.334 17.5573 107.975 17.1332 107.99 16.7224C108.008 16.2203 108.206 15.5032 108.567 15.2941ZM102.786 22.8757C104.86 22.0629 106.62 20.8025 108.071 19.0768C108.13 19.2564 108.172 19.386 108.234 19.576C108.464 19.2609 108.664 18.987 108.983 18.5526C108.948 19.0429 108.926 19.3566 108.905 19.6717C108.949 19.6908 108.993 19.7114 109.037 19.732C109.187 19.4552 109.335 19.1784 109.528 18.8221C109.779 19.5583 109.996 20.2489 110.249 20.9247C110.625 21.9333 110.919 22.9935 111.437 23.9255C112.8 26.3683 115.037 27.3901 117.867 26.9425C117.669 27.1163 117.531 27.2355 117.209 27.5153C118.077 27.2797 118.723 27.103 119.371 26.9278C119.396 27.0132 119.423 27.0971 119.448 27.1825C118.641 27.8672 117.685 28.1956 116.592 28.0763C112.965 27.6832 110.477 25.8132 109.257 22.325C109.106 21.8906 108.936 21.4651 108.745 20.9586C108.194 21.3414 107.707 21.7066 107.192 22.032C105.064 23.3792 102.929 24.7457 100.306 24.8414C98.4359 24.9091 96.6572 24.5734 95.2061 23.2806C95.2164 23.1922 95.2252 23.1024 95.2355 23.0126H96.1696C96.177 22.9979 96.2475 22.8286 96.3385 22.6092C98.4697 23.7812 100.617 23.7238 102.786 22.8757ZM106.418 25.5687C106.63 25.9442 106.791 26.2313 106.953 26.5199H106.956C106.404 27.3047 105.733 26.5332 104.967 26.5229C105.239 26.0959 105.511 25.6689 105.782 25.2419C105.859 25.2801 105.935 25.3184 106.013 25.3567C106.001 25.6365 105.988 25.9162 105.969 26.3683C106.132 26.0767 106.226 25.9118 106.418 25.5687ZM106.577 24.4998C106.819 23.8563 107.391 23.7474 108.075 24.1022C107.737 24.619 107.389 25.1506 106.981 25.7764C106.546 25.6085 106.335 25.1417 106.577 24.4998ZM107.598 26.3933C107.884 26.3786 108.187 26.355 108.458 26.4257C108.87 26.5332 109.259 26.7172 109.772 26.9116C109.788 26.891 109.891 26.7496 109.995 26.6083C110.073 26.6053 110.15 26.6024 110.228 26.5994C110.252 26.9219 110.277 27.2444 110.308 27.6478C109.206 27.4225 108.246 27.2473 107.3 27.0132C107.163 26.9793 107.09 26.6952 106.99 26.5111C107.194 26.4655 107.395 26.4051 107.598 26.3933ZM104.315 24.5719C104.117 25.208 104.179 25.9427 103.657 26.4551C103.565 26.4036 103.474 26.3506 103.381 26.2991C103.598 25.6865 103.817 25.0755 104.035 24.463C104.127 24.4998 104.221 24.5351 104.315 24.5719ZM102.805 26.3933C102.695 26.3462 102.584 26.2991 102.473 26.252C102.658 25.7705 102.842 25.2905 103.027 24.809C103.111 24.8428 103.195 24.8782 103.28 24.912C103.109 25.4009 103.553 26.1548 102.805 26.3933ZM96.1961 20.2076C96.2739 20.4123 96.4105 20.7672 96.5471 21.122C96.1138 21.2766 95.6805 21.4297 95.2473 21.5844C95.2238 21.5166 95.2017 21.4474 95.1782 21.3782C95.3251 21.3105 95.472 21.2427 95.7628 21.1073C95.4705 20.9807 95.2854 20.9011 95.1018 20.8216C95.3985 20.6552 95.7011 20.4844 96.1961 20.2076ZM95.6218 25.2006C96.2166 25.4024 96.81 25.6056 97.4048 25.8088C97.4078 25.8559 97.4107 25.9045 97.4136 25.9516H87.4953C87.4791 25.8117 87.4542 25.5938 87.4116 25.2036C87.6304 25.4568 87.7435 25.5864 87.9286 25.7999C87.9609 25.4701 87.9873 25.2124 88.0358 24.7147C88.2194 25.1609 88.3119 25.3891 88.4367 25.6968C88.5733 25.2478 88.6908 24.8649 88.8847 24.2215C89.0639 24.7633 89.1579 25.046 89.2548 25.339C89.4355 24.8266 89.6147 24.3187 89.7953 23.8107C89.8761 23.8313 89.9583 23.8504 90.0391 23.871C90.1228 24.3187 90.2051 24.7663 90.302 25.2905C90.681 24.5837 90.0347 23.6207 91.0672 23.1319C91.1216 23.7032 91.1715 24.22 91.22 24.7354C91.2729 24.7339 91.3243 24.7339 91.3757 24.7324C91.4491 23.9343 91.5211 23.1348 91.5945 22.3368C91.712 22.3441 91.828 22.353 91.9455 22.3603C92.0278 23.3203 92.1115 24.2804 92.1952 25.2404C92.2319 25.2389 92.2701 25.2389 92.3068 25.2374C92.3406 24.619 92.3729 24.0006 92.4053 23.3837C92.4302 23.3822 92.4552 23.3822 92.4802 23.3822C92.5213 23.8946 92.5609 24.407 92.6006 24.9194C92.6623 24.9238 92.724 24.9268 92.7857 24.9312C92.8429 24.0742 92.9002 23.2173 92.956 22.3603C93.0765 22.35 93.1954 22.3397 93.3144 22.3294C93.4069 23.1687 93.498 24.0065 93.5905 24.8443L93.7095 24.8487C93.7433 24.3039 93.7771 23.7577 93.8167 23.1054C94.8874 23.528 94.2206 24.4747 94.626 25.208C94.72 24.7118 94.7919 24.3231 94.8815 23.846C95.7892 24.0698 95.2987 24.9106 95.6218 25.2006ZM98.6958 16.0112C98.6782 16.154 98.6944 16.3013 98.6944 16.6164C97.6751 15.5651 96.6631 15.1616 95.2355 15.7152C95.4132 15.272 95.5909 14.8303 95.8186 14.2664C96.1153 14.6683 96.0301 15.2028 96.6337 14.7832C96.8981 14.5991 97.5282 14.9996 98.0011 15.0482C98.6341 15.1145 98.7649 15.4679 98.6958 16.0112ZM99.2466 15.0659C99.2819 16.1334 99.3171 17.1995 99.3524 18.267C98.7326 17.2495 98.6723 16.5604 99.2466 15.0659ZM100.11 20.7112C99.8679 19.9205 99.6211 19.1121 99.3744 18.3038C99.37 18.2964 99.3656 18.2876 99.3597 18.2802C99.4699 17.5131 99.58 16.7459 99.6887 15.9788C99.7386 15.9744 99.7871 15.97 99.8356 15.9656C99.9061 16.6002 99.9766 17.2333 100.047 17.8665C100.113 17.89 100.178 17.9151 100.244 17.9401C100.638 17.1332 101.031 16.3248 101.423 15.5179C101.473 15.5238 101.522 15.5297 101.572 15.5341C101.094 17.2215 100.618 18.9104 100.11 20.7112ZM98.8941 10.9195C101.31 10.8916 102.497 12.4199 101.914 14.9142C101.648 14.0234 101.598 13.112 100.726 12.4612C100.632 13.0354 100.561 13.4595 100.491 13.885C100.423 13.8791 100.354 13.8747 100.286 13.8688C100.254 13.2327 100.223 12.5952 100.192 11.9591C100.163 11.9591 100.134 11.9561 100.106 11.9547C100.021 12.5672 99.9354 13.1797 99.8503 13.7923C99.7989 13.7937 99.7474 13.7937 99.696 13.7937C99.6432 13.2548 99.5903 12.7159 99.5374 12.177C99.5139 12.1741 99.4919 12.1711 99.4684 12.1682C99.3964 12.6614 99.3245 13.1562 99.254 13.6494C99.182 13.6435 99.1115 13.6376 99.041 13.6318V11.9444C98.9881 11.937 98.9352 11.9282 98.8824 11.9208C98.7634 12.4096 98.6444 12.8985 98.5255 13.3873C98.4638 13.3785 98.4021 13.3711 98.3404 13.3623C98.2993 12.8043 98.2596 12.2462 98.2185 11.6881C98.1656 11.6823 98.1113 11.6778 98.0584 11.672C97.9967 12.1372 97.935 12.6011 97.8733 13.0663C97.797 13.0605 97.7206 13.0546 97.6442 13.0487C97.6193 12.548 97.5943 12.0474 97.5708 11.5483C97.5135 11.5424 97.4577 11.5365 97.4004 11.5321C97.3387 11.9988 97.277 12.4671 97.2139 12.9353C97.1757 12.9456 97.139 12.9574 97.1008 12.9677C97.0332 12.6084 96.9671 12.2506 96.8996 11.8913C96.8702 11.8958 96.8394 11.9002 96.81 11.9046C96.7586 12.2874 96.7072 12.6717 96.6191 13.3211C96.4178 12.872 96.3253 12.6644 96.2504 12.498C96.0316 12.7969 95.8582 13.1753 95.5645 13.3741C95.4235 13.4698 95.0534 13.2268 94.6553 13.0914C94.5378 12.7365 94.9667 12.5893 95.2707 12.2285C96.2665 11.0491 97.5488 10.9357 98.8941 10.9195ZM88.7731 15.8654C87.9197 15.7241 87.0091 16.2939 86.5274 17.3526C86.1896 18.0962 85.9825 18.9001 85.6241 19.6319C85.3553 20.1826 84.9397 20.6611 84.4712 21.1264C84.6166 19.5922 83.9527 18.3568 83.3828 17.0861C83.0494 16.3425 82.7013 15.5783 82.5545 14.7876C82.2872 13.3461 82.5912 11.9988 83.8851 11.1316C85.2819 10.1936 86.7756 10.3188 88.2091 11.08C88.6864 11.3333 89.0668 11.7721 89.4942 12.124C89.6294 12.2359 89.7718 12.3404 90.0171 12.4008C89.1726 10.0965 88.4309 7.77001 89.5324 5.43621C90.2991 3.81212 91.3669 2.33233 92.3201 0.752412C95.3354 3.75911 96.431 8.55482 94.7963 11.5851C94.7317 10.1686 94.673 8.87139 94.6142 7.57565C94.5379 7.57565 94.4615 7.57565 94.3836 7.57712V12.0651C94.2985 12.0621 94.2118 12.0592 94.1251 12.0563V5.87352C94.0179 5.87205 93.9107 5.87205 93.802 5.87205V12.5289C93.6845 12.526 93.567 12.5215 93.4495 12.5186V5.83671C93.3497 5.83524 93.2498 5.83524 93.1514 5.83377V11.9488C93.0618 11.9488 92.9722 11.9473 92.8826 11.9458V5.46713H92.6006C92.6006 8.41641 92.58 11.3657 92.6285 14.3135C92.6329 14.6522 93.0221 14.9849 93.2777 15.3913C93.3497 15.032 93.4157 14.711 93.4804 14.3901C93.5626 14.393 93.6449 14.3959 93.7271 14.3974C93.7638 14.9246 93.802 15.4502 93.8446 16.0451C93.946 15.3427 94.0355 14.7066 94.1266 14.0705C94.2147 14.0705 94.3043 14.072 94.3924 14.072C94.4336 14.6448 94.4747 15.2161 94.5158 15.7874C94.5349 15.7903 94.5525 15.7918 94.5716 15.7948C94.5966 15.4635 94.623 15.1322 94.6495 14.7773C95.4749 14.9231 95.2429 15.5783 95.1224 15.9553C94.952 16.4824 94.4835 16.9079 94.2632 17.4277C94.0444 17.9489 93.9724 18.5335 93.6522 19.0989C93.6126 18.5806 93.5744 18.0623 93.5347 17.544C93.2659 17.6191 93.0133 17.6898 92.7519 17.7634C92.7298 17.6574 92.6961 17.4866 92.6314 17.1685C92.5551 17.4645 92.5125 17.6279 92.4376 17.9209C92.3803 17.6044 92.3436 17.4056 92.2628 16.9565C92.1996 17.4704 92.1673 17.7384 92.1233 18.1079C92.0293 17.8738 91.972 17.7295 91.9147 17.5852C91.8662 17.5793 91.8178 17.5735 91.7693 17.5676L91.6724 19.0164C91.1407 17.996 91.3022 16.6193 89.9275 15.9685C90.9674 17.7251 91.1392 18.5394 90.5635 19.2344C90.5194 18.772 90.4944 18.3848 90.443 18.0005C90.2903 16.8652 89.6117 16.0053 88.7731 15.8654ZM88.6556 20.3549C88.9361 20.1252 89.3239 19.9396 89.6808 19.9087C91.0995 19.7909 92.5257 19.732 93.9489 19.6731C94.1251 19.6658 94.3073 19.7924 94.6818 19.9264C93.9518 20.1531 93.4172 20.3195 92.9913 20.4521C93.6008 20.5654 94.2838 20.6921 94.9697 20.8187C93.3922 20.8246 91.8207 20.8246 90.2492 20.8246V21.0616H94.1193C94.1193 21.1043 94.1193 21.147 94.1193 21.1897C92.37 21.2928 90.6222 21.4077 88.8715 21.4828C88.7099 21.4886 88.403 21.2531 88.4 21.1235C88.3941 20.8629 88.4749 20.5051 88.6571 20.3549H88.6556ZM73.1737 13.3741C73.488 12.7527 74.0211 12.66 74.5851 12.9206C74.309 13.5419 74.0461 14.1294 73.748 14.8009C73.1355 14.474 72.8535 14.0087 73.1737 13.3741ZM73.325 17.0714C73.2442 16.7312 73.2427 16.1305 73.4322 16.0127C73.8684 15.7388 74.4397 15.6725 74.9641 15.5562C75.1609 15.512 75.3782 15.5621 75.5868 15.5709C75.6177 15.1822 75.7719 14.8789 76.1376 15.2676C76.4592 15.6122 76.6516 16.0775 76.9013 16.4883C76.8352 16.528 76.7691 16.5663 76.7016 16.6061C76.5444 16.2939 76.3858 15.9832 76.1993 15.6136C76.095 16.2586 76.1728 16.93 75.8761 17.2952C75.5677 17.6721 74.898 17.7531 74.3854 17.9636C74.5029 18.0402 74.7188 18.1845 75.0977 18.4348C74.0505 18.3421 73.5159 17.8709 73.325 17.0714ZM66.3823 26.6466C70.0159 27.7509 72.5803 25.7587 73.6481 23.4926C74.0784 22.5768 74.2855 21.5593 74.6439 20.6067C74.8583 20.0383 75.1667 19.5068 75.4443 18.934C75.5706 19.174 75.7146 19.4464 75.9584 19.9102V18.7337C78.7181 21.0381 81.3912 23.3969 85.1923 23.3778C86.3276 23.3734 87.46 23.0097 88.6967 22.7932C88.6967 22.7932 88.7746 23.0067 88.8509 23.2202C88.9067 23.2114 88.9611 23.2011 89.0169 23.1908C88.9875 22.9036 88.9581 22.6165 88.9111 22.166C89.1829 22.2882 89.3929 22.3824 89.5398 22.4487C89.785 22.3515 90.0347 22.2528 90.5091 22.0658C89.9774 23.1716 89.343 23.7871 88.4837 24.1449C86.5318 24.9547 84.5343 25.1727 82.4972 24.485C80.1472 23.6929 78.0778 22.4045 76.0891 20.8437C74.4221 26.6083 69.0789 29.7666 65.3571 26.9057C65.8021 26.785 66.1355 26.5715 66.3823 26.6466ZM82.4693 26.2431C81.7055 26.3918 81.5763 26.1268 81.9258 24.8428C82.105 25.3037 82.2828 25.7646 82.4693 26.2431ZM75.0257 25.2404C75.1007 25.2227 75.1741 25.2036 75.249 25.1859C75.4928 25.7675 75.7366 26.3491 75.9804 26.9307C76.0304 26.9145 76.0803 26.8984 76.1302 26.8822L75.5795 24.2583C75.6412 24.245 75.7028 24.2303 75.766 24.2171C76.0568 25.0063 76.3476 25.7955 76.6149 26.5199C77.4844 26.4596 78.2202 26.408 79.216 26.3374C78.9943 25.3214 78.8107 24.4791 78.5816 23.4308C79.5818 24.3717 79.3747 25.6306 79.9607 26.6053C78.1468 26.9587 76.4489 27.2885 74.6762 27.6331C74.5734 27.0986 74.475 26.5921 74.3766 26.087C74.4676 26.0576 74.5572 26.0267 74.6483 25.9972C74.8568 26.383 75.0669 26.7688 75.2754 27.1546C75.3224 27.1413 75.3709 27.1295 75.4179 27.1163C75.2872 26.4905 75.1565 25.8662 75.0257 25.2404ZM77.0438 26.0885C76.7809 25.794 76.3858 25.5334 76.2947 25.1918C76.2198 24.9076 76.4093 24.3908 76.6502 24.2244C76.963 24.0094 77.4433 24.0404 77.8516 23.9653C77.8707 24.0683 77.8912 24.1714 77.9103 24.276C77.2333 24.6441 76.8176 25.1211 77.0438 26.0885ZM79.9196 24.111C80.2148 24.8885 80.5115 25.6659 80.814 26.4625C80.1237 26.5376 79.6787 25.4878 79.9196 24.111ZM80.6157 24.5572C80.7186 24.5263 80.8199 24.4939 80.9227 24.4615C81.1063 25.0608 81.2958 25.6586 81.4603 26.2623C81.4735 26.3109 81.2928 26.4787 81.2502 26.4625C81.1371 26.4213 80.9888 26.3226 80.9638 26.2196C80.8287 25.6703 80.7288 25.1123 80.6157 24.5572ZM68.39 29.3455C67.9861 29.4177 67.6689 29.9271 67.3281 29.3234C67.3208 29.3308 67.312 29.3382 67.3046 29.3455V28.4959C67.5147 28.7536 67.6791 28.9553 67.8906 29.2145C67.9435 28.9671 67.9802 28.789 68.0478 28.4694C68.1873 28.8272 68.2769 29.054 68.39 29.3455ZM66.5409 19.2137C66.9551 20.3593 67.3692 21.5048 67.8187 22.7432C67.0975 22.1174 66.4939 20.5743 66.5409 19.2137ZM69.2022 23.5854C68.5222 23.7415 68.1168 23.4057 67.9465 22.5223C67.7027 21.2589 67.3267 20.0206 67.0065 18.772C66.5629 18.1403 66.1179 17.5072 65.6743 16.8755C65.7683 17.1965 65.8609 17.519 65.9549 17.84C65.9181 17.8665 65.8829 17.893 65.8462 17.9195C65.4335 17.3982 65.0222 16.8785 64.6095 16.3572C64.6536 16.291 64.6976 16.2232 64.7417 16.157C65.0545 16.2983 65.3659 16.4397 65.6787 16.5825C66.607 16.9506 67.0447 17.6692 67.0094 18.775C67.24 19.0694 67.5499 19.3301 67.6865 19.6628C68.2241 20.9645 68.7058 22.2867 69.2022 23.5854ZM54.4312 11.4187C55.7354 11.0594 57.6551 11.6293 58.4599 12.8897C59.372 14.3164 60.0197 15.914 60.782 17.438C61.1874 17.7148 61.5046 17.6898 61.7455 17.1936C63.0115 14.5771 66.3867 14.9628 67.5514 17.3114C68.1697 18.557 68.3959 19.9985 68.7983 21.3517C68.7043 21.3782 68.6089 21.4032 68.5149 21.4297C68.3269 20.6243 68.2329 19.7821 67.9274 19.0238C67.5969 18.2022 67.1504 17.3953 66.607 16.6988C66.0019 15.9229 65.1015 15.7741 64.2291 16.0053C64.4964 16.5457 64.7652 17.092 65.034 17.6382C64.9547 17.6986 64.8768 17.7605 64.7975 17.8208C64.4303 17.3747 64.0631 16.9271 63.6959 16.4794C63.6724 16.4883 63.6475 16.4986 63.624 16.5074C63.8267 16.9639 64.0308 17.4188 64.2335 17.8738C64.1865 17.9106 64.1395 17.9474 64.091 17.9828C63.7709 17.5779 63.4507 17.1744 63.0115 16.6208C63.082 16.902 63.0923 17.0125 63.1364 17.1037C63.7532 18.3892 64.376 19.6731 65.1045 20.9144C65.0075 20.4962 64.9106 20.0795 64.8137 19.6614C64.8856 19.6349 64.9576 19.6098 65.031 19.5833C65.2748 20.0147 65.5186 20.4462 65.7625 20.8776C65.805 20.8614 65.8476 20.8452 65.8902 20.829C65.7654 20.399 65.642 19.9691 65.5172 19.5391C65.5906 19.5053 65.664 19.4714 65.7375 19.4361C66.0797 20.1664 66.4234 20.8953 66.8023 21.7036C64.2306 21.0366 63.5799 21.736 64.1557 24.379C63.6636 23.9638 63.4874 23.3616 63.4859 22.4148C63.4859 22.1822 63.3097 21.951 63.1995 21.7198V23.8504C62.9116 23.7336 62.7643 24.1645 62.7574 25.1432C60.0873 20.5109 57.9062 15.5768 54.4312 11.4187ZM62.8764 26.4566C62.753 26.5494 62.4842 26.4493 62.2816 26.4375C62.3521 26.221 62.3579 25.8883 62.5033 25.8073C63.1819 25.4259 63.8913 25.099 64.6066 24.7928C64.7784 24.7192 65.0354 24.7486 65.2117 24.8252C65.2939 24.8605 65.3483 25.2242 65.291 25.2654C65.0692 25.4259 64.7828 25.635 64.5463 25.607C63.9868 25.5422 63.9368 25.4863 63.7576 25.5879C63.4786 25.8721 63.2083 26.2063 62.8764 26.4566ZM63.8972 27.0677C64.0059 27.0103 64.116 26.9514 64.2262 26.8939C64.655 27.5727 65.0854 28.25 65.5157 28.9288C65.5627 28.9082 65.6097 28.8891 65.6567 28.8685C65.5554 28.5372 65.4555 28.2059 65.3556 27.8746C65.3923 27.854 65.4276 27.8333 65.4643 27.8127C65.7801 28.2677 66.0944 28.7227 66.4087 29.1777C66.4469 29.1585 66.4851 29.1394 66.5233 29.1202C66.4733 28.8788 66.4219 28.6388 66.372 28.3973C66.416 28.3723 66.4601 28.3457 66.5042 28.3207C66.77 28.6638 67.0358 29.0069 67.3002 29.3499C67.1431 29.5001 66.9815 29.6533 66.7876 29.8373C66.6481 29.7181 66.4792 29.5738 66.2236 29.3558C66.2677 29.6341 66.2985 29.8255 66.3294 30.0155C66.2648 30.0685 66.2016 30.123 66.137 30.176C66.0004 29.933 65.8653 29.6901 65.7287 29.4471C65.6817 29.4722 65.6347 29.4957 65.5877 29.5207C65.6347 29.7401 65.6817 29.9595 65.739 30.2305C65.5877 30.2525 65.3541 30.3188 65.338 30.2849C64.8445 29.2189 64.373 28.1426 63.8972 27.0677ZM110.973 42.3809C101.742 43.0185 92.4993 42.9699 83.2565 42.8521L83.2609 42.4148H107.306L107.319 42.0658C106.947 42.0393 106.576 42.0143 106.204 41.9878C106.207 41.9466 106.21 41.9068 106.213 41.8656C107.802 41.9657 109.391 42.0644 110.98 42.1645C110.977 42.2366 110.974 42.3088 110.973 42.3809ZM76.9043 41.4342C81.2282 40.3755 106.991 40.7201 113.204 42.0349C101.056 40.5934 88.8818 41.1515 76.9043 41.4342ZM118.923 41.2148C117.214 40.296 115.429 39.6879 113.526 39.4214C114.793 39.8837 116.075 40.3107 117.316 40.8349C117.892 41.0778 118.381 41.5255 118.845 41.9716C116.181 40.1458 113.116 39.6143 110.039 39.2565C101.685 38.2832 93.2909 38.3583 84.9059 38.5894C80.2735 38.7175 75.6176 38.8501 71.0675 39.9456C68.8732 40.4742 67.265 41.1765 66.1061 42.0467C66.2839 41.7861 66.4616 41.524 66.7127 41.1544C66.4234 41.2869 66.2398 41.3709 66.0562 41.4548C66.0019 41.3723 65.946 41.2899 65.8902 41.2074C66.3353 40.9026 66.7406 40.458 67.2327 40.3166C69.2742 39.7291 71.3172 39.0812 73.4043 38.7293C81.1371 37.4277 88.9493 37.5808 96.7512 37.6294C102.072 37.6618 107.386 37.8768 112.624 38.9016C114.36 39.2417 116.059 39.7939 117.754 40.3195C118.204 40.458 118.574 40.854 118.923 41.2148ZM68.274 36.9182C68.3239 36.9094 68.3724 36.902 68.4223 36.8932C68.6382 37.6662 68.8556 38.4393 69.073 39.2123C68.932 39.2329 68.7895 39.255 68.6485 39.2756C68.5237 38.4908 68.3988 37.7045 68.274 36.9182ZM70.9691 34.1957C71.0734 35.3192 71.326 36.4294 71.5302 37.5411C71.5669 37.7384 71.7343 37.9224 71.7314 38.1109C71.7284 38.2935 71.583 38.4731 71.4993 38.6528C71.3833 38.5202 71.1821 38.3966 71.1645 38.2508C70.9192 36.3131 70.693 34.3724 70.4859 32.4303C70.4712 32.2919 70.6416 32.1343 70.7268 31.9856C70.8634 32.0165 71 32.0474 71.138 32.0784C71.0734 32.7851 70.9045 33.5022 70.9691 34.1957ZM72.2866 34.209C72.103 34.5977 71.9194 34.9864 71.7358 35.3751C71.6638 35.4002 71.5904 35.4252 71.5184 35.4502C71.4611 35.1543 71.2717 34.7906 71.3804 34.58C71.5111 34.3297 71.8959 34.2104 72.2866 34.209ZM71.4817 31.7853C71.6095 31.7839 71.7373 31.7824 71.8636 31.7809V33.7128C71.7769 33.7157 71.6903 33.7172 71.6021 33.7201C71.5625 33.0752 71.5228 32.4303 71.4817 31.7853ZM75.3136 33.3638C75.0037 33.966 75.5589 35.0129 75.7234 35.8625C75.8321 36.4264 75.9716 36.9904 76.0142 37.5617C76.0245 37.7089 75.719 37.8783 75.3959 38.1992C75.1609 35.7418 74.9376 33.564 74.7687 31.3834C74.7526 31.1831 75.0698 30.9564 75.3709 30.818C75.2754 31.6926 75.791 32.4332 75.3136 33.3638ZM82.7836 30.6825C82.7748 30.5073 82.6999 30.3159 82.7483 30.1627C82.8144 29.9566 82.9731 29.7814 83.092 29.5929C83.2418 29.7593 83.5062 29.9139 83.5224 30.0921C83.634 31.2847 83.6986 32.4818 83.7647 33.6789C83.7867 34.0544 83.7676 34.4328 83.8293 34.8082V29.4339C84.0775 29.6385 84.3977 29.7725 84.4095 29.9301C84.5887 32.3449 84.7267 34.7626 84.8736 37.1715C84.3919 37.253 84.0903 36.7931 83.9689 35.7918V37.2687C81.4074 37.4557 78.8724 37.6412 76.2551 37.8311V36.0259C78.6359 36.955 80.8067 36.5177 82.835 34.873C82.8879 35.406 82.9187 35.7197 82.9496 36.0348C82.9848 36.0304 83.0215 36.0274 83.0582 36.0245C82.9672 34.2443 82.8761 32.4627 82.7836 30.6825ZM85.3862 30.6398C85.4963 30.229 85.6065 29.8182 85.7166 29.4088C85.8327 29.8314 85.9693 30.2496 86.0559 30.6796C86.1176 30.9917 86.1485 31.3186 86.1279 31.6352C86.1161 31.8222 85.9795 32.0003 85.8988 32.1829C85.7769 32.0283 85.5786 31.884 85.5507 31.7132C85.4963 31.3731 85.5345 31.0182 85.5345 30.6678C85.4861 30.6589 85.4361 30.6486 85.3862 30.6398ZM86.0383 32.4244C86.0897 32.4877 86.1426 32.5495 86.1955 32.6114C86.0192 32.9898 85.843 33.3682 85.5668 33.9601C85.4229 33.595 85.16 33.243 85.2467 33.0752C85.3921 32.7969 85.7622 32.6349 86.0383 32.4244ZM86.2718 34.2738V37.2363C86.1749 37.251 86.078 37.2672 85.981 37.2819C85.8914 36.3926 85.7857 35.5062 85.7269 34.6154C85.7181 34.4799 85.9267 34.3297 86.0339 34.1869C86.1132 34.2163 86.1925 34.2458 86.2718 34.2738ZM85.6535 36.9153C85.6579 37.0331 85.4905 37.1568 85.4023 37.2775C85.3098 37.1582 85.1497 37.0449 85.138 36.9168C85.0469 35.9126 84.9838 34.9054 84.9118 33.8998C84.9749 33.8747 85.0381 33.8497 85.1012 33.8247C85.2349 34.0161 85.464 34.1972 85.4861 34.4019C85.5815 35.2352 85.6241 36.076 85.6535 36.9153ZM84.9324 32.7218C84.8868 31.6293 84.4726 30.522 84.715 29.4412C84.8604 29.4457 85.0058 29.4515 85.1512 29.4574C85.229 30.5514 85.608 31.6572 84.9324 32.7218ZM79.3879 31.5498C78.1821 31.2891 77.4124 32.2492 76.4108 32.5554C76.2521 32.604 76.1097 32.7041 75.9496 32.7851C75.462 30.762 75.4576 30.7429 77.3757 30.4101C79.0413 30.123 80.7141 29.8844 82.4619 29.612C82.553 30.5353 82.6323 31.3377 82.7146 32.1711C81.5719 31.9606 80.4733 31.7868 79.3879 31.5498ZM75.1315 37.5043C75.1477 37.6721 74.9641 37.8591 74.8745 38.0373C74.7452 37.8841 74.5176 37.7428 74.4999 37.5779C74.2899 35.6048 74.1004 33.6288 73.9359 31.6514C73.9183 31.4555 74.0916 31.2435 74.1768 31.0388C74.2767 31.0801 74.3751 31.1198 74.475 31.161C74.6982 33.274 74.9303 35.3884 75.1315 37.5043ZM74.2929 38.13C73.5585 37.6162 73.0341 31.7868 73.5849 31.1655C73.8317 33.5861 74.0623 35.8581 74.2929 38.13ZM73.419 38.2817C72.7301 37.4674 72.6787 35.9847 73.2089 35.6107C73.2824 36.5325 73.3499 37.4071 73.419 38.2817ZM72.8432 34.2193C72.2308 33.4139 72.3776 32.4774 72.3497 31.5718C72.4672 31.5512 72.5833 31.5306 72.6993 31.51C72.8227 32.3949 72.946 33.2799 73.0694 34.1648C72.9945 34.1825 72.9181 34.2001 72.8432 34.2193ZM72.501 37.1582C72.6067 37.5705 72.5965 38.0123 72.6361 38.4407C72.4966 38.454 72.3585 38.4658 72.219 38.479C72.1177 37.706 72.0178 36.9315 71.9164 36.157C71.9502 36.1467 71.984 36.1349 72.0163 36.1246C72.1838 36.4677 72.407 36.796 72.501 37.1582ZM70.7488 38.5085C70.7664 38.6321 70.5784 38.7853 70.4859 38.9237C70.4081 38.9075 70.3302 38.8898 70.2509 38.8722C69.9983 36.7209 69.7457 34.5682 69.493 32.417C69.6061 32.4023 69.7207 32.3876 69.8338 32.3743C70.1437 34.418 70.4595 36.4618 70.7488 38.5085ZM69.9527 38.9752C69.822 39.0061 69.6928 39.0371 69.5621 39.0695C69.4255 38.2891 69.2874 37.5087 69.1508 36.7283C69.2066 36.7283 69.2624 36.7268 69.3183 36.7268C69.5298 37.4763 69.7413 38.2258 69.9527 38.9752ZM86.7198 29.3234C86.7932 30.4395 86.8623 31.4923 86.9357 32.6261C86.216 32.0769 86.0486 29.7608 86.7198 29.3234ZM86.9695 34.1604V37.1862C86.5083 36.8299 86.3673 34.9363 86.9695 34.1604ZM87.1369 29.4457C87.1369 29.4059 87.3793 29.3588 87.6583 29.2631C87.7729 31.8251 87.8889 34.2384 87.9785 36.6547C87.9858 36.8505 87.8199 37.0537 87.7332 37.2525C87.6245 37.2304 87.5158 37.2068 87.4057 37.1847C87.3117 34.605 87.2148 32.0253 87.1369 29.4457ZM88.0005 29.9257C87.9932 29.7048 88.1474 29.4795 88.2267 29.2572C88.3589 29.4707 88.5983 29.6798 88.6071 29.8977C88.7026 32.1181 88.7672 34.34 88.8186 36.5619C88.823 36.7739 88.6835 36.9889 88.6101 37.2024C88.5205 37.1862 88.4323 37.17 88.3427 37.1524C88.3178 36.8476 88.284 36.5413 88.2708 36.235C88.1738 34.1324 88.074 32.0298 88.0005 29.9257ZM90.703 30.5559C90.963 30.762 91.1789 30.9328 91.4432 31.1419C90.8807 31.8472 90.9688 33.0664 89.5104 33.0045C89.9334 32.1373 90.2991 31.3848 90.703 30.5559ZM90.0523 30.7222V29.2189C90.161 29.2248 90.2697 29.2307 90.3784 29.2351C90.3417 29.7357 90.3035 30.2378 90.2668 30.7384C90.1948 30.7326 90.1243 30.7281 90.0523 30.7222ZM94.7758 32.3522C94.9418 32.6806 95.0137 33.056 95.1283 33.4094C95.4529 33.3226 95.7775 33.2357 96.1021 33.1473C96.1535 33.2224 96.2063 33.299 96.2577 33.3741C95.8817 34.022 95.5058 34.6713 95.0754 35.4134C94.8536 35.0247 94.742 34.8303 94.6319 34.636C94.015 34.8024 93.3996 34.9687 92.5727 35.1925C92.771 34.9172 92.8356 34.8259 92.9707 34.6389C92.4963 34.8038 92.11 34.9378 91.7252 35.0718C91.6915 35.0159 91.6562 34.9599 91.6224 34.9054C91.9823 34.686 92.3406 34.4681 92.746 34.2207C92.2261 34.2634 91.762 34.3003 91.2993 34.3385C91.2729 34.2767 91.2464 34.2163 91.2215 34.156C91.6239 33.8998 92.0278 33.6436 92.4302 33.3888C92.4155 33.3579 92.4009 33.3285 92.3862 33.2975C91.9676 33.4654 91.5505 33.6318 90.8822 33.8998C91.1833 33.5788 91.3022 33.4507 91.4785 33.2637C91.2552 33.2916 91.1054 33.3108 90.9879 33.3255C91.1142 33.0384 91.1965 32.7233 91.3742 32.4759C91.8941 31.75 92.5345 31.3421 93.5141 31.3053C94.3895 31.2715 94.5158 31.8398 94.7758 32.3522ZM94.6671 30.8077C94.8639 30.8607 95.143 30.871 95.2061 30.9932C95.4294 31.4261 95.6144 31.8796 95.7995 32.3316C95.425 32.0577 95.049 31.7868 94.7141 31.4702C94.5951 31.3583 94.6671 31.0447 94.6671 30.8077ZM90.5826 35.7565C90.3799 34.9835 90.1845 34.2399 89.973 33.4345C90.349 33.8291 90.7059 34.181 91.0349 34.555C91.4873 35.0689 91.3066 35.4355 90.5826 35.7565ZM91.2978 30.8371C91.3008 30.7281 91.3037 30.6177 91.3052 30.5073C92.3333 30.5073 93.3599 30.5014 94.3866 30.5205C94.4644 30.5205 94.5408 30.6766 94.6172 30.7767C93.4995 31.055 92.3964 30.9991 91.2978 30.8371ZM89.2108 37.1685C89.1535 36.0554 89.0962 34.9422 89.0316 33.6951C89.7483 34.583 89.9128 36.4809 89.2108 37.1685ZM88.9346 32.6467C88.9346 31.6396 88.917 30.6324 88.9537 29.6253C88.9596 29.4707 89.2108 29.3234 89.3488 29.1733C89.4208 29.2513 89.4928 29.3293 89.5647 29.4074C89.3973 30.4837 89.9231 31.6514 88.9346 32.6467ZM96.5823 32.6717V29.3603C96.6499 29.3603 96.7174 29.3632 96.7865 29.3647V32.6629C96.7174 32.6659 96.6499 32.6688 96.5823 32.6717ZM99.6975 37.1818L99.9443 34.0632L100.169 34.0853C100.106 35.1248 100.043 36.1658 99.9795 37.2068C99.8855 37.198 99.7915 37.1906 99.6975 37.1818ZM107.519 33.4742C107.519 33.4742 107.524 33.4728 107.529 33.4728C107.529 33.4757 107.529 33.4801 107.53 33.4831C107.526 33.4801 107.523 33.4772 107.519 33.4742ZM109.303 37.7899L109.77 33.5935C109.827 33.5876 109.885 33.5817 109.943 33.5773C109.801 34.9879 109.658 36.3985 109.516 37.8091C109.445 37.8032 109.374 37.7973 109.303 37.7899ZM110.114 37.9165C110.302 36.3572 110.491 34.7994 110.681 33.2416C110.725 33.246 110.769 33.2504 110.814 33.2563C110.654 34.8171 110.494 36.3793 110.336 37.9416C110.261 37.9327 110.187 37.9239 110.114 37.9165ZM111.954 34.583C112.086 34.3282 112.465 34.2016 112.74 34.0205C112.778 34.1059 112.816 34.1913 112.854 34.2767C112.665 34.636 112.475 34.9967 112.158 35.5989C112.052 35.141 111.85 34.7817 111.954 34.583ZM120.186 32.6408C119.887 32.6644 119.555 32.7837 119.293 32.6938C118.399 32.3876 117.44 32.1431 116.663 31.6322C113.586 29.6135 110.033 29.1099 106.567 28.4415C100.078 27.1928 93.5024 27.0471 86.9181 27.4063C81.685 27.6905 76.5165 28.4267 71.4788 29.933C70.624 30.1878 69.7897 30.5146 68.9467 30.8077C74.0285 29.615 79.1074 28.4945 84.3184 28.0969C81.7423 28.5239 79.1529 28.8861 76.5944 29.3956C72.8432 30.1421 69.164 31.1551 65.645 32.6983C65.4188 32.7969 65.0957 32.6776 64.8181 32.66C64.8915 32.3198 64.8886 31.9282 65.0648 31.6543C65.1999 31.4452 65.5568 31.3686 65.8256 31.2612C70.4609 29.3971 75.318 28.3914 80.2265 27.6272C87.6069 26.4802 95.0196 26.439 102.425 27.2988C108.182 27.9688 113.813 29.2322 119.199 31.4526C119.387 31.5306 119.649 31.5615 119.747 31.7029C119.941 31.9827 120.045 32.3257 120.186 32.6408ZM122.254 26.0046C121.836 25.8353 121.426 25.6438 120.999 25.5054C120.692 25.4068 120.374 24.9606 120.014 25.4716C119.998 25.4966 119.577 25.2713 119.381 25.1152C119.311 25.0578 119.32 24.753 119.348 24.7457C119.553 24.6838 119.812 24.5793 119.982 24.6529C120.786 25.0004 121.567 25.4024 122.356 25.7852C122.322 25.8588 122.288 25.931 122.254 26.0046ZM122.881 22.8565C122.743 23.4175 122.598 24.1272 121.651 23.7915C121.833 22.7579 121.308 21.5372 122.585 20.7348C122.431 21.2354 122.301 21.6565 122.172 22.0791C122.229 22.1218 122.285 22.1645 122.341 22.2072C122.557 21.9525 122.771 21.6977 122.903 21.5417C122.903 21.9156 122.99 22.4104 122.881 22.8565ZM128.31 13.193C127.753 14.2605 127.195 15.328 126.637 16.394C126.558 16.3499 126.477 16.3057 126.396 16.2615C126.821 15.5003 127.244 14.739 127.668 13.9792C127.277 14.449 126.888 14.9172 126.497 15.3869C126.465 15.3736 126.433 15.3589 126.399 15.3457L126.959 14.3297C126.912 14.3017 126.865 14.2737 126.818 14.2443C126.474 14.7081 126.132 15.1719 125.79 15.6357C125.709 15.5739 125.628 15.512 125.547 15.4502C126.43 14.2693 127.313 13.0884 128.09 12.0474C127.1 12.3169 126.246 13.1355 125.685 14.2605C125.02 15.593 124.421 16.958 123.789 18.3082C123.729 18.4378 123.648 18.5585 123.526 18.7691C123.469 18.5188 123.431 18.3524 123.376 18.1153C123.175 18.37 123.017 18.5703 122.859 18.7705C122.815 18.7588 122.771 18.747 122.729 18.7352C122.789 18.398 122.851 18.0608 122.912 17.7222C122.645 18.0623 122.379 18.401 122.03 18.8442C122.002 18.4628 121.98 18.158 121.956 17.8385C121.727 17.999 121.488 18.1654 121.059 18.4657C121.404 17.7855 121.646 17.3084 121.961 16.6885C122.376 17.0331 122.717 17.3158 123.058 17.5985C123.108 17.4895 123.228 17.3334 123.193 17.2804C121.778 15.113 118.719 15.2293 117.64 17.5867C116.968 19.0547 116.632 20.6773 116.297 22.2955C116.772 21.3267 117.246 20.3563 117.72 19.3875C117.75 19.4007 117.779 19.4155 117.807 19.4287C117.493 20.6184 117.224 21.8229 116.843 22.9905C116.611 23.7032 115.94 23.5721 115.434 23.5545C115.834 21.9201 116.212 20.3151 116.622 18.7175C117.217 16.4014 119.227 14.9466 121.285 15.4914C122.01 15.6829 122.629 16.3189 123.266 16.7916C123.476 16.9491 123.597 17.2289 123.876 17.6176C124.051 17.1626 124.142 16.8726 124.271 16.6002C124.845 15.3898 125.333 14.1235 126.033 12.9898C126.963 11.485 128.508 11.0903 130.447 11.0359C129.624 11.8663 128.968 12.5304 128.31 13.193Z" fill="white"/>
<path d="M91.1465 16.3926V14.5638C91.2596 14.5461 91.3712 14.5299 91.4843 14.5123C91.571 15.0041 91.6576 15.4959 91.7516 16.0304C91.7839 15.5459 91.8148 15.1042 91.8441 14.6625C91.9088 14.6595 91.9749 14.6566 92.0395 14.6522C92.1173 15.0909 92.1952 15.5312 92.229 15.7256V6.90276C92.1496 6.90276 92.0689 6.90276 91.9895 6.90276V11.8251C91.9 11.8251 91.8104 11.8251 91.7208 11.8236V6.17096C91.6297 6.17096 91.5387 6.17096 91.4491 6.17096V12.6629C91.336 12.6658 91.2243 12.6688 91.1113 12.6703V7.74793C91.0217 7.75235 90.9321 7.75677 90.8439 7.75971C90.8439 7.90401 90.8572 8.04978 90.8425 8.19261C90.6368 10.0965 91.1156 12.0445 90.4606 13.9233C90.3857 14.1383 90.5047 14.4387 90.5796 14.686C90.7485 15.2441 90.9468 15.7933 91.1465 16.3911V16.3926Z" fill="white"/>
<path d="M84.6033 13.8836C84.5358 13.8865 84.4697 13.8894 84.4021 13.8924C84.3375 13.5169 84.2729 13.1429 84.2083 12.7675C84.1715 12.7704 84.1348 12.7748 84.0981 12.7778V16.1526C83.9879 16.1482 83.8778 16.1452 83.7676 16.1408C84.0247 14.5727 83.2638 12.9662 84.2743 11.2391C83.9101 11.5748 83.6105 11.7588 83.4372 12.0254C82.6382 13.2504 82.6367 14.5668 83.164 15.8802C83.6589 17.1126 84.2317 18.3126 84.8398 19.6864V12.3876H84.6929C84.6621 12.8867 84.6327 13.3844 84.6019 13.8836H84.6033Z" fill="white"/>
<path d="M90.1552 14.7081C90.4666 14.2266 89.9731 12.7306 89.5795 12.9014C89.5472 13.0899 89.5134 13.2828 89.4693 13.539C89.1726 13.2548 88.9171 13.0104 88.6777 12.7792C88.6483 12.8293 88.5543 12.9898 88.3545 13.3299C88.2209 12.8484 88.1386 12.5525 88.03 12.1593C87.9712 12.5289 87.9286 12.7925 87.886 13.056L87.7333 13.059C87.6672 12.7115 87.5996 12.364 87.5335 12.015L87.4131 12.0224V14.9083C88.2341 14.7994 88.8774 14.714 89.5222 14.6286C89.5486 14.8421 89.5736 15.0497 89.5912 15.194C89.8057 15.0144 90.0333 14.8966 90.1552 14.7081Z" fill="white"/>
<path d="M90.4342 6.52874H90.2433V10.2672C89.6543 8.39284 89.8438 6.54346 90.4225 4.70587C89.0771 6.68187 89.1491 9.84465 90.4342 11.6822V6.52874Z" fill="white"/>
<path d="M86.6316 13.4654L86.4319 13.5022C86.3173 13.1253 86.2028 12.7468 86.0192 12.1417V16.1629C86.3188 15.7859 85.934 14.9805 86.9019 15.1734V11.9429C86.8549 11.9429 86.8079 11.9399 86.7609 11.9385C86.7168 12.4479 86.6742 12.9559 86.6302 13.4654H86.6316Z" fill="white"/>
<path d="M85.3671 17.9415C85.4258 17.9415 85.4846 17.9415 85.5433 17.9415V12.3743L85.3671 12.3404V17.9415Z" fill="white"/>
<path d="M62.1141 22.3633C60.8319 19.2093 59.1311 16.3027 57.0132 13.6524C58.714 16.556 60.4148 19.4596 62.1141 22.3633Z" fill="white"/>
<path d="M58.7816 14.3017C58.7537 14.3194 58.7272 14.3385 58.7008 14.3562C60.0653 17.0139 61.4297 19.6702 62.7942 22.3279C62.7677 22.0305 62.6767 21.7596 62.5636 21.499C61.9673 20.1399 61.3651 18.7838 60.7658 17.4262L60.7908 17.4527L60.7835 17.4365L60.7791 17.4336C60.1137 16.3896 59.4484 15.3457 58.7831 14.3017H58.7816Z" fill="white"/>
<path d="M64.5038 20.8879C63.9207 19.6805 63.3376 18.4746 62.7545 17.2672C62.6796 17.3187 62.6047 17.3717 62.5283 17.4233C63.1099 18.6159 63.6916 19.8071 64.2732 20.9998C64.3495 20.9615 64.4259 20.9247 64.5038 20.8864V20.8879Z" fill="white"/>
<path d="M63.8678 21.069C63.3215 19.9735 62.7751 18.8766 62.2287 17.7811C62.1538 17.8179 62.0789 17.8562 62.004 17.893C62.5401 18.9943 63.0777 20.0943 63.6138 21.1956C63.6989 21.1529 63.7841 21.1117 63.8693 21.069H63.8678Z" fill="white"/>
<path d="M63.176 21.6153C63.085 20.2724 62.2713 19.28 61.462 18.2876C62.0334 19.3963 62.6047 20.5065 63.176 21.6153Z" fill="white"/>
<path d="M63.176 21.6153C63.176 21.6359 63.1804 21.6565 63.1819 21.6786L63.1892 21.6712L63.1804 21.6786C63.1863 21.6918 63.1936 21.7066 63.1995 21.7198V21.6624C63.1922 21.6462 63.1834 21.6315 63.176 21.6153Z" fill="white"/>
<path d="M93.2439 37.8856C86.4378 37.7634 79.6376 37.9799 72.8961 39.0695C72.3512 39.1578 71.8107 39.2815 71.2717 39.4037C70.7518 39.5215 70.2362 39.6599 69.7192 39.788C72.9945 39.3139 76.2463 38.7514 79.5186 38.5894C84.972 38.3185 90.4401 38.1816 95.9009 38.2213C100.217 38.2523 104.533 38.6086 108.845 38.8722C110.286 38.9605 111.719 39.1814 113.156 39.3551C111.624 39.0695 110.099 38.669 108.555 38.5747C103.456 38.2655 98.3507 37.9754 93.2454 37.8856H93.2439Z" fill="white"/>
<path d="M113.156 39.3551C113.245 39.3713 113.335 39.389 113.424 39.4052L113.43 39.3978L113.424 39.4052C113.458 39.4096 113.492 39.4169 113.526 39.4214C113.496 39.4111 113.465 39.4007 113.436 39.389C113.342 39.3787 113.248 39.3669 113.156 39.3551Z" fill="white"/>
<path d="M74.4119 17.3835C74.8716 17.3732 75.487 17.3261 75.5854 17.0743C75.7513 16.6473 75.6104 16.0996 75.5883 15.5989C75.5443 16.3985 75.3519 17.1008 74.4119 17.3821V17.3835Z" fill="white"/>
<path d="M75.5899 15.571H75.5868C75.5868 15.5819 75.5868 15.5912 75.5883 15.6006C75.5883 15.5912 75.5883 15.5803 75.5899 15.571Z" fill="white"/>
</g>
<defs>
<clipPath id="clip0_5_2">
<rect width="185" height="87" fill="white"/>
</clipPath>
</defs>
</svg>
